<svg width="100" height="100" viewBox="0 0 100 100" fill="none" xmlns="http://www.w3.org/2000/svg">
<rect width="100" height="100" fill="#555555"/>
<path d="M16.8541 27.6092C22.283 19.5726 30.4468 13.7821 39.8263 11.3154C49.2059 8.8487 59.1621 9.87375 67.8423 14.1998C76.5224 18.5259 83.3352 25.8583 87.0128 34.8324C90.6903 43.8066 90.9821 53.8112 87.8339 62.9844C84.6857 72.1577 78.3119 79.8747 69.8986 84.6994C61.4854 89.524 51.6058 91.1276 42.0984 89.2118C32.5911 87.296 24.1036 81.9912 18.2155 74.2847C12.3274 66.5782 9.43979 56.9949 10.09 47.3183L17.9144 47.844C17.3916 55.6236 19.7131 63.3281 24.4469 69.5237C29.1806 75.7193 36.0041 79.9841 43.6475 81.5243C51.291 83.0645 59.2337 81.7753 65.9975 77.8965C72.7613 74.0178 77.8855 67.8137 80.4166 60.4388C82.9476 53.064 82.713 45.0208 79.7564 37.806C76.7998 30.5912 71.3227 24.6964 64.3443 21.2184C57.3659 17.7405 49.3615 16.9164 41.8209 18.8995C34.2802 20.8827 27.7169 25.5379 23.3523 31.9989L16.8541 27.6092Z" fill="#C4C4C4"/>
<path d="M29.4599 64.907C26.1267 60.0393 24.5845 54.1664 25.096 48.2891C25.6075 42.4117 28.1411 36.8936 32.2651 32.6748C36.389 28.4561 41.8482 25.7978 47.7124 25.1528C53.5766 24.5079 59.483 25.9163 64.4252 29.1379C69.3675 32.3596 73.0397 37.1953 74.8163 42.821C76.5929 48.4467 76.3639 54.5143 74.1683 59.9901C71.9727 65.4659 67.9464 70.011 62.7754 72.851C57.6043 75.6909 51.6086 76.6501 45.8097 75.5649L47.2236 68.0092C51.2744 68.7672 55.4628 68.0972 59.075 66.1134C62.6872 64.1295 65.4998 60.9545 67.0336 57.1294C68.5673 53.3042 68.7273 49.0656 67.4862 45.1358C66.2452 41.2059 63.6799 37.828 60.2275 35.5774C56.7751 33.3269 52.6492 32.3431 48.5527 32.7936C44.4562 33.2441 40.6427 35.1011 37.7619 38.0481C34.8811 40.9952 33.1113 44.8499 32.754 48.9555C32.3966 53.0612 33.4739 57.1637 35.8023 60.5641L29.4599 64.907Z" fill="#C4C4C4"/>
</svg>
