<svg viewBox="0 0 92 60" xmlns="http://www.w3.org/2000/svg">
    <g>
        <path d="M10.2642 27.9574V46H0.192472V14.3636H9.76989V20.1719H10.12C10.8203 18.2358 12.0149 16.7185 13.7038 15.62C15.3928 14.5078 17.4044 13.9517 19.7386 13.9517C21.9631 13.9517 23.8923 14.4529 25.5263 15.4553C27.174 16.4439 28.451 17.8307 29.3572 19.6158C30.2772 21.3871 30.7304 23.4605 30.7166 25.8359V46H20.6449V27.8132C20.6586 26.0556 20.2124 24.6825 19.3061 23.6939C18.4136 22.7053 17.1709 22.2109 15.5781 22.2109C14.5208 22.2109 13.5871 22.4444 12.777 22.9112C11.9806 23.3643 11.3627 24.0166 10.9233 24.8679C10.4976 25.7192 10.2779 26.7491 10.2642 27.9574Z" />
        <path d="M92 30.5L40.25 60.3779L40.25 0.622124L92 30.5Z" />
    </g>
</svg>