<svg width="150" height="150" viewBox="0 0 150 150" fill="none" xmlns="http://www.w3.org/2000/svg">
<rect width="150" height="150" rx="21" fill="black"/>
<path d="M43.2642 73.9574V92H33.1925V60.3636H42.7699V66.1719H43.12C43.8203 64.2358 45.0149 62.7185 46.7038 61.62C48.3928 60.5078 50.4044 59.9517 52.7386 59.9517C54.9631 59.9517 56.8923 60.4529 58.5263 61.4553C60.174 62.4439 61.451 63.8307 62.3572 65.6158C63.2772 67.3871 63.7304 69.4605 63.7166 71.8359V92H53.6449V73.8132C53.6586 72.0556 53.2124 70.6825 52.3061 69.6939C51.4136 68.7053 50.1709 68.2109 48.5781 68.2109C47.5208 68.2109 46.5871 68.4444 45.777 68.9112C44.9806 69.3643 44.3627 70.0166 43.9233 70.8679C43.4976 71.7192 43.2779 72.7491 43.2642 73.9574Z" fill="white"/>
<path d="M125 76.5L73.25 106.378L73.25 46.6221L125 76.5Z" fill="white"/>
</svg>
